<mxfile host="app.diagrams.net" modified="2023-08-17T23:01:28.817Z" agent="Mozilla/5.0 (X11; Ubuntu; Linux x86_64; rv:109.0) Gecko/20100101 Firefox/116.0" version="21.6.8" etag="sQ6-eas4TMAc2cK5RByb" type="github">
  <diagram name="Страница — 1" id="VhEmYMvPJBQj8ZDaFz3N">
    <mxGraphModel>
      <root>
        <mxCell id="0" />
        <mxCell id="1" parent="0" />
      </root>
    </mxGraphModel>
  </diagram>
</mxfile>
